<?xml version="1.0" encoding="UTF-8" standalone="no"?>
<!-- Created with Inkscape (http://www.inkscape.org/) -->

<svg
   xmlns:dc="http://purl.org/dc/elements/1.1/"
   xmlns:cc="http://creativecommons.org/ns#"
   xmlns:rdf="http://www.w3.org/1999/02/22-rdf-syntax-ns#"
   xmlns:svg="http://www.w3.org/2000/svg"
   xmlns="http://www.w3.org/2000/svg"
   xmlns:sodipodi="http://sodipodi.sourceforge.net/DTD/sodipodi-0.dtd"
   xmlns:inkscape="http://www.inkscape.org/namespaces/inkscape"
   width="90"
   height="31"
   viewBox="0 0 90 31"
   id="svg4167"
   version="1.1"
   inkscape:version="0.91 r13725"
   sodipodi:docname="logo-text.svg">
  <defs
     id="defs4169" />
  <sodipodi:namedview
     id="base"
     pagecolor="#ffffff"
     bordercolor="#666666"
     borderopacity="1.0"
     inkscape:pageopacity="0.0"
     inkscape:pageshadow="2"
     inkscape:zoom="3.959798"
     inkscape:cx="96.973872"
     inkscape:cy="23.738588"
     inkscape:document-units="px"
     inkscape:current-layer="text3359"
     showgrid="false"
     units="px"
     inkscape:window-width="1280"
     inkscape:window-height="705"
     inkscape:window-x="-8"
     inkscape:window-y="-8"
     inkscape:window-maximized="1" />
  <metadata
     id="metadata4172">
    <rdf:RDF>
      <cc:Work
         rdf:about="">
        <dc:format>image/svg+xml</dc:format>
        <dc:type
           rdf:resource="http://purl.org/dc/dcmitype/StillImage" />
        <dc:title></dc:title>
      </cc:Work>
    </rdf:RDF>
  </metadata>
  <g
     inkscape:label="Layer 1"
     inkscape:groupmode="layer"
     id="layer1"
     transform="translate(0,-1021.3622)">
    <g
       style="font-style:normal;font-weight:normal;font-size:15px;line-height:125%;font-family:sans-serif;letter-spacing:0px;word-spacing:0px;fill:#000000;fill-opacity:1;stroke:none;stroke-width:1px;stroke-linecap:butt;stroke-linejoin:miter;stroke-opacity:1"
       id="text4715">
      <g
         id="text3359"
         style="font-style:normal;font-weight:normal;font-size:20.4452076px;line-height:85.00000238%;font-family:sans-serif;letter-spacing:0px;word-spacing:0px;fill:#000000;fill-opacity:1;stroke:none;stroke-width:1px;stroke-linecap:butt;stroke-linejoin:miter;stroke-opacity:1"
         transform="matrix(1.9564488,0,0,1.9564488,-4.8530206,-999.87096)">
        <path
           inkscape:connector-curvature="0"
           id="path3366"
           style="font-style:normal;font-variant:normal;font-weight:bold;font-stretch:normal;font-size:9.58369064px;line-height:85.00000238%;font-family:Roboto;-inkscape-font-specification:'Roboto Bold';fill:#333333"
           d="m 6.8785046,1040.5471 -4.0805558,0 0,-1.2354 1.1418069,0 0,-4.497 -1.1418069,0 0,-1.2354 4.0805558,0 0,1.2354 -1.1418069,0 0,4.497 1.1418069,0 0,1.2354 z" />
        <path
           inkscape:connector-curvature="0"
           id="path3368"
           style="font-style:normal;font-variant:normal;font-weight:bold;font-stretch:normal;font-size:9.58369064px;line-height:85.00000238%;font-family:Roboto;-inkscape-font-specification:'Roboto Bold';fill:#333333"
           d="m 12.826195,1038.8812 q 0,0.8142 -0.730007,1.315 -0.730008,0.496 -1.998162,0.496 -0.7019308,0 -1.2728343,-0.131 -0.5709034,-0.1311 -0.9171891,-0.2902 l 0,-1.3851 0.1544247,0 q 0.1263475,0.089 0.2901312,0.1965 0.1684634,0.103 0.4726332,0.2246 0.2620541,0.1077 0.5943012,0.1872 0.332247,0.075 0.7112891,0.075 0.496031,0 0.734688,-0.1076 0.238656,-0.1123 0.238656,-0.3276 0,-0.1919 -0.140386,-0.2761 -0.140386,-0.089 -0.533467,-0.1685 -0.187182,-0.042 -0.5100697,-0.089 -0.3182085,-0.051 -0.5802626,-0.1216 -0.715969,-0.1872 -1.0622547,-0.5803 -0.3462857,-0.3978 -0.3462857,-0.9874 0,-0.7581 0.715969,-1.2588 0.7206487,-0.5054 1.9654057,-0.5054 0.589621,0 1.127768,0.1217 0.542826,0.117 0.846996,0.2527 l 0,1.329 -0.145066,0 q -0.374363,-0.2574 -0.856355,-0.4165 -0.477312,-0.1638 -0.968664,-0.1638 -0.407119,0 -0.6878917,0.1123 -0.2760926,0.1123 -0.2760926,0.3182 0,0.1872 0.1263475,0.2855 0.1263474,0.098 0.5943008,0.1965 0.257375,0.052 0.552186,0.103 0.29949,0.047 0.59898,0.1217 0.664494,0.1731 0.982703,0.5475 0.318208,0.3696 0.318208,0.9265 z" />
        <path
           inkscape:connector-curvature="0"
           id="path3370"
           style="font-style:normal;font-variant:normal;font-weight:bold;font-stretch:normal;font-size:9.58369064px;line-height:85.00000238%;font-family:Roboto;-inkscape-font-specification:'Roboto Bold';fill:#333333"
           d="m 15.633917,1040.5471 -1.684633,0 0,-7.2813 1.684633,0 0,7.2813 z" />
        <path
           inkscape:connector-curvature="0"
           id="path3372"
           style="font-style:normal;font-variant:normal;font-weight:bold;font-stretch:normal;font-size:9.58369064px;line-height:85.00000238%;font-family:Roboto;-inkscape-font-specification:'Roboto Bold';fill:#333333"
           d="m 20.407044,1039.176 0,-1.095 q -0.341606,0.028 -0.739367,0.08 -0.39776,0.047 -0.60366,0.1123 -0.252695,0.08 -0.388401,0.2339 -0.131027,0.1498 -0.131027,0.3978 0,0.1638 0.02808,0.2667 0.02808,0.103 0.140386,0.1966 0.107629,0.094 0.257374,0.1404 0.149746,0.042 0.467954,0.042 0.252695,0 0.51007,-0.103 0.262054,-0.1029 0.458594,-0.2714 z m 0,0.8143 q -0.135706,0.1029 -0.336927,0.248 -0.20122,0.145 -0.379042,0.2293 -0.248015,0.1123 -0.514749,0.1638 -0.266734,0.056 -0.584942,0.056 -0.748726,0 -1.254116,-0.4633 -0.50539,-0.4632 -0.50539,-1.1839 0,-0.5756 0.257375,-0.9406 0.257374,-0.365 0.730007,-0.5756 0.467954,-0.2105 1.160525,-0.2995 0.692572,-0.089 1.436618,-0.131 l 0,-0.028 q 0,-0.4352 -0.355645,-0.5989 -0.355644,-0.1685 -1.048216,-0.1685 -0.416479,0 -0.889112,0.1497 -0.472633,0.1451 -0.678532,0.2247 l -0.154425,0 0,-1.2682 q 0.266733,-0.07 0.865714,-0.1638 0.60366,-0.098 1.20732,-0.098 1.436618,0 2.073035,0.4445 0.641097,0.4399 0.641097,1.3852 l 0,3.5751 -1.670595,0 0,-0.5568 z" />
        <path
           inkscape:connector-curvature="0"
           id="path3374"
           style="font-style:normal;font-variant:normal;font-weight:bold;font-stretch:normal;font-size:9.58369064px;line-height:85.00000238%;font-family:Roboto;-inkscape-font-specification:'Roboto Bold';fill:#333333"
           d="m 28.764697,1036.8222 0,3.7249 -1.693992,0 0,-2.6252 q 0,-0.3837 -0.01872,-0.6505 -0.01872,-0.2714 -0.10295,-0.4398 -0.08423,-0.1685 -0.257375,-0.2434 -0.168463,-0.079 -0.477312,-0.079 -0.248016,0 -0.481993,0.1029 -0.233977,0.098 -0.421158,0.2106 l 0,3.7249 -1.684633,0 0,-5.2551 1.684633,0 0,0.5803 q 0.435197,-0.3416 0.832957,-0.5335 0.397761,-0.1919 0.879753,-0.1919 0.519429,0 0.917189,0.234 0.397761,0.2293 0.622379,0.6785 0.50539,-0.4258 0.982702,-0.6691 0.477313,-0.2434 0.935908,-0.2434 0.851675,0 1.291552,0.5101 0.444556,0.5101 0.444556,1.4694 l 0,3.4207 -1.693992,0 0,-2.6252 q 0,-0.3884 -0.01872,-0.6551 -0.01404,-0.2668 -0.09827,-0.4352 -0.07955,-0.1685 -0.252695,-0.2434 -0.173143,-0.079 -0.486672,-0.079 -0.210579,0 -0.411799,0.075 -0.20122,0.07 -0.491351,0.2386 z" />
        <path
           inkscape:connector-curvature="0"
           id="path3376"
           style="font-style:normal;font-variant:normal;font-weight:bold;font-stretch:normal;font-size:9.58369064px;line-height:85.00000238%;font-family:Roboto;-inkscape-font-specification:'Roboto Bold';fill:#333333"
           d="m 35.456434,1040.5471 -1.684633,0 0,-5.2551 1.684633,0 0,5.2551 z m 0.04679,-6.0038 -1.778223,0 0,-1.2775 1.778223,0 0,1.2775 z" />
        <path
           inkscape:connector-curvature="0"
           id="path3378"
           style="font-style:normal;font-variant:normal;font-weight:bold;font-stretch:normal;font-size:9.58369064px;line-height:85.00000238%;font-family:Roboto;-inkscape-font-specification:'Roboto Bold';fill:#333333"
           d="m 39.785006,1040.6875 q -0.687891,0 -1.258795,-0.1638 -0.566224,-0.1638 -0.987382,-0.5054 -0.416479,-0.3416 -0.645776,-0.861 -0.229297,-0.5194 -0.229297,-1.2167 0,-0.7347 0.243336,-1.2681 0.248015,-0.5335 0.687891,-0.8845 0.425838,-0.3322 0.982703,-0.4866 0.556865,-0.1545 1.155846,-0.1545 0.538146,0 0.992061,0.117 0.453915,0.117 0.846996,0.3042 l 0,1.4366 -0.238656,0 q -0.09827,-0.084 -0.238656,-0.1965 -0.135707,-0.1123 -0.336927,-0.22 -0.191861,-0.1029 -0.421158,-0.1684 -0.229298,-0.07 -0.533467,-0.07 -0.673854,0 -1.038857,0.4305 -0.360325,0.4258 -0.360325,1.1605 0,0.7581 0.369684,1.1512 0.374363,0.3931 1.057575,0.3931 0.318208,0 0.570903,-0.07 0.257375,-0.075 0.425838,-0.1732 0.159104,-0.094 0.280772,-0.1965 0.121668,-0.103 0.224618,-0.2012 l 0.238656,0 0,1.4366 q -0.39776,0.1872 -0.832957,0.2948 -0.430517,0.1123 -0.954626,0.1123 z" />
        <path
           inkscape:connector-curvature="0"
           id="path3380"
           style="font-style:normal;font-variant:normal;font-weight:bold;font-stretch:normal;font-size:9.58369064px;line-height:85.00000238%;font-family:Roboto;-inkscape-font-specification:'Roboto Bold';fill:#333333"
           d="m 8.8626281,1043.9248 q 0,0.468 -0.1637838,0.9172 -0.1637838,0.4446 -0.4679536,0.7487 -0.4164788,0.4118 -0.9312278,0.6224 -0.5100695,0.2106 -1.2728339,0.2106 l -1.1184092,0 0,2.2696 -1.796942,0 0,-6.9679 2.957467,0 q 0.6644942,0 1.1184092,0.117 0.4585946,0.1123 0.8095598,0.3416 0.4211583,0.2761 0.6410965,0.7066 0.2246178,0.4305 0.2246178,1.0342 z m -1.857776,0.042 q 0,-0.2948 -0.1591042,-0.5054 -0.1591043,-0.2152 -0.3696834,-0.2995 -0.2807722,-0.1123 -0.5475058,-0.1216 -0.2667336,-0.014 -0.7112895,-0.014 l -0.3088494,0 0,2.0871 0.514749,0 q 0.4585946,0 0.7534054,-0.056 0.2994903,-0.056 0.5007104,-0.2247 0.1731428,-0.1497 0.2480154,-0.3556 0.079552,-0.2106 0.079552,-0.5101 z" />
        <path
           inkscape:connector-curvature="0"
           id="path3382"
           style="font-style:normal;font-variant:normal;font-weight:bold;font-stretch:normal;font-size:9.58369064px;line-height:85.00000238%;font-family:Roboto;-inkscape-font-specification:'Roboto Bold';fill:#333333"
           d="m 11.721825,1048.6933 -1.684633,0 0,-7.2814 1.684633,0 0,7.2814 z" />
        <path
           inkscape:connector-curvature="0"
           id="path3384"
           style="font-style:normal;font-variant:normal;font-weight:bold;font-stretch:normal;font-size:9.58369064px;line-height:85.00000238%;font-family:Roboto;-inkscape-font-specification:'Roboto Bold';fill:#333333"
           d="m 16.494952,1047.3222 0,-1.0951 q -0.341606,0.028 -0.739367,0.08 -0.39776,0.047 -0.60366,0.1123 -0.252695,0.08 -0.388402,0.234 -0.131027,0.1497 -0.131027,0.3977 0,0.1638 0.02808,0.2668 0.02808,0.1029 0.140386,0.1965 0.107629,0.094 0.257374,0.1404 0.149745,0.042 0.467954,0.042 0.252695,0 0.510069,-0.1029 0.262054,-0.103 0.458595,-0.2714 z m 0,0.8142 q -0.135707,0.1029 -0.336927,0.248 -0.20122,0.1451 -0.379042,0.2293 -0.248016,0.1123 -0.514749,0.1638 -0.266734,0.056 -0.584942,0.056 -0.748726,0 -1.254116,-0.4632 -0.50539,-0.4633 -0.50539,-1.184 0,-0.5755 0.257375,-0.9405 0.257374,-0.365 0.730007,-0.5756 0.467954,-0.2106 1.160525,-0.2995 0.692572,-0.089 1.436618,-0.131 l 0,-0.028 q 0,-0.4352 -0.355645,-0.599 -0.355645,-0.1685 -1.048216,-0.1685 -0.416479,0 -0.889112,0.1498 -0.472633,0.145 -0.678533,0.2246 l -0.154424,0 0,-1.2682 q 0.266733,-0.07 0.865714,-0.1637 0.60366,-0.098 1.20732,-0.098 1.436618,0 2.073035,0.4445 0.641096,0.4399 0.641096,1.3852 l 0,3.5752 -1.670594,0 0,-0.5569 z" />
        <path
           inkscape:connector-curvature="0"
           id="path3386"
           style="font-style:normal;font-variant:normal;font-weight:bold;font-stretch:normal;font-size:9.58369064px;line-height:85.00000238%;font-family:Roboto;-inkscape-font-specification:'Roboto Bold';fill:#333333"
           d="m 23.074381,1048.6465 q -0.271413,0.07 -0.575583,0.1076 -0.30417,0.042 -0.744046,0.042 -0.982703,0 -1.464695,-0.3978 -0.477313,-0.3977 -0.477313,-1.3617 l 0,-2.4568 -0.692571,0 0,-1.1418 0.692571,0 0,-1.5021 1.684633,0 0,1.5021 1.577004,0 0,1.1418 -1.577004,0 0,1.8625 q 0,0.2761 0.0047,0.482 0.0047,0.2059 0.07487,0.3697 0.06551,0.1638 0.229297,0.262 0.168464,0.094 0.486672,0.094 0.131027,0 0.341606,-0.056 0.215259,-0.056 0.299491,-0.103 l 0.140386,0 0,1.1559 z" />
        <path
           inkscape:connector-curvature="0"
           id="path3388"
           style="font-style:normal;font-variant:normal;font-weight:bold;font-stretch:normal;font-size:9.58369064px;line-height:85.00000238%;font-family:Roboto;-inkscape-font-specification:'Roboto Bold';fill:#333333"
           d="m 27.482504,1042.6473 -0.126347,0 q -0.112309,-0.033 -0.294811,-0.075 -0.177822,-0.042 -0.383722,-0.042 -0.496031,0 -0.673853,0.1778 -0.173143,0.1779 -0.173143,0.6879 l 0,0.042 1.300911,0 0,1.1418 -1.244757,0 0,4.1134 -1.684633,0 0,-4.1134 -0.720648,0 0,-1.1418 0.720648,0 0,-0.145 q 0,-0.964 0.51007,-1.446 0.514749,-0.482 1.553606,-0.482 0.374363,0 0.678533,0.028 0.304169,0.023 0.538146,0.065 l 0,1.1886 z" />
        <path
           inkscape:connector-curvature="0"
           id="path3390"
           style="font-style:normal;font-variant:normal;font-weight:bold;font-stretch:normal;font-size:9.58369064px;line-height:85.00000238%;font-family:Roboto;-inkscape-font-specification:'Roboto Bold';fill:#333333"
           d="m 33.491029,1046.068 q 0,1.2963 -0.758085,2.045 -0.753405,0.744 -2.11983,0.744 -1.366424,0 -2.124509,-0.744 -0.753406,-0.7487 -0.753406,-2.045 0,-1.3056 0.758085,-2.0496 0.762765,-0.744 2.11983,-0.744 1.375784,0 2.12451,0.7487 0.753405,0.7487 0.753405,2.0449 z m -2.073035,1.2775 q 0.163784,-0.2012 0.243336,-0.4819 0.08423,-0.2855 0.08423,-0.7862 0,-0.4633 -0.08423,-0.7768 -0.08423,-0.3135 -0.233977,-0.5007 -0.149745,-0.1919 -0.360324,-0.2714 -0.210579,-0.08 -0.453915,-0.08 -0.243336,0 -0.435197,0.065 -0.187181,0.065 -0.360324,0.2621 -0.154425,0.1825 -0.248015,0.5007 -0.08891,0.3182 -0.08891,0.8002 0,0.4305 0.07955,0.7487 0.07955,0.3136 0.233977,0.5054 0.149745,0.1825 0.355645,0.2667 0.210579,0.084 0.477313,0.084 0.229297,0 0.435197,-0.075 0.210579,-0.08 0.355644,-0.2621 z" />
        <path
           inkscape:connector-curvature="0"
           id="path3392"
           style="font-style:normal;font-variant:normal;font-weight:bold;font-stretch:normal;font-size:9.58369064px;line-height:85.00000238%;font-family:Roboto;-inkscape-font-specification:'Roboto Bold';fill:#333333"
           d="m 38.516851,1045.0432 -0.149745,0 q -0.10763,-0.037 -0.346286,-0.056 -0.238656,-0.019 -0.39776,-0.019 -0.360325,0 -0.636417,0.047 -0.276093,0.047 -0.594302,0.1591 l 0,3.5191 -1.684633,0 0,-5.2552 1.684633,0 0,0.7722 q 0.556865,-0.4774 0.968664,-0.6318 0.4118,-0.1591 0.758085,-0.1591 0.08891,0 0.20122,0 0.112309,0 0.196541,0.014 l 0,1.6051 z" />
        <path
           inkscape:connector-curvature="0"
           id="path3394"
           style="font-style:normal;font-variant:normal;font-weight:bold;font-stretch:normal;font-size:9.58369064px;line-height:85.00000238%;font-family:Roboto;-inkscape-font-specification:'Roboto Bold';fill:#333333"
           d="m 44.618966,1044.9683 0,3.725 -1.693992,0 0,-2.6253 q 0,-0.3837 -0.01872,-0.6504 -0.01872,-0.2714 -0.10295,-0.4399 -0.08423,-0.1685 -0.257375,-0.2433 -0.168463,-0.08 -0.477312,-0.08 -0.248016,0 -0.481993,0.103 -0.233977,0.098 -0.421158,0.2105 l 0,3.725 -1.684633,0 0,-5.2552 1.684633,0 0,0.5803 q 0.435197,-0.3416 0.832958,-0.5335 0.39776,-0.1918 0.879752,-0.1918 0.519429,0 0.91719,0.2339 0.39776,0.2293 0.622378,0.6786 0.50539,-0.4259 0.982703,-0.6692 0.477312,-0.2433 0.935907,-0.2433 0.851675,0 1.291552,0.51 0.444556,0.5101 0.444556,1.4694 l 0,3.4208 -1.693992,0 0,-2.6253 q 0,-0.3884 -0.01872,-0.6551 -0.01404,-0.2667 -0.09827,-0.4352 -0.07955,-0.1685 -0.252695,-0.2433 -0.173143,-0.08 -0.486672,-0.08 -0.210579,0 -0.411799,0.075 -0.20122,0.07 -0.491351,0.2386 z" />
      </g>
    </g>
  </g>
</svg>
