<?xml version="1.0" encoding="UTF-8" standalone="no"?>
<!-- Generator: Adobe Illustrator 18.0.0, SVG Export Plug-In . SVG Version: 6.00 Build 0)  -->

<svg
   xmlns:dc="http://purl.org/dc/elements/1.1/"
   xmlns:cc="http://creativecommons.org/ns#"
   xmlns:rdf="http://www.w3.org/1999/02/22-rdf-syntax-ns#"
   xmlns:svg="http://www.w3.org/2000/svg"
   xmlns="http://www.w3.org/2000/svg"
   xmlns:sodipodi="http://sodipodi.sourceforge.net/DTD/sodipodi-0.dtd"
   xmlns:inkscape="http://www.inkscape.org/namespaces/inkscape"
   version="1.1"
   id="Capa_1"
   x="0px"
   y="0px"
   viewBox="0 0 14.711434 14.711434"
   xml:space="preserve"
   width="32"
   height="32"
   inkscape:version="0.91 r13725"
   sodipodi:docname="logo.svg"><metadata
     id="metadata39"><rdf:RDF><cc:Work
         rdf:about=""><dc:format>image/svg+xml</dc:format><dc:type
           rdf:resource="http://purl.org/dc/dcmitype/StillImage" /><dc:title></dc:title></cc:Work></rdf:RDF></metadata><defs
     id="defs37" /><sodipodi:namedview
     pagecolor="#ffffff"
     bordercolor="#666666"
     borderopacity="1"
     objecttolerance="10"
     gridtolerance="10"
     guidetolerance="10"
     inkscape:pageopacity="0"
     inkscape:pageshadow="2"
     inkscape:window-width="1280"
     inkscape:window-height="705"
     id="namedview35"
     showgrid="false"
     inkscape:zoom="5.2149125"
     inkscape:cx="-4.4020446"
     inkscape:cy="8.2108642"
     inkscape:window-x="-8"
     inkscape:window-y="-8"
     inkscape:window-maximized="1"
     inkscape:current-layer="Capa_1" /><g
     id="g5"
     transform="translate(0,-220.67159)" /><g
     id="g7"
     transform="translate(0,-220.67159)" /><g
     id="g9"
     transform="translate(0,-220.67159)" /><g
     id="g11"
     transform="translate(0,-220.67159)" /><g
     id="g13"
     transform="translate(0,-220.67159)" /><g
     id="g15"
     transform="translate(0,-220.67159)" /><g
     id="g17"
     transform="translate(0,-220.67159)" /><g
     id="g19"
     transform="translate(0,-220.67159)" /><g
     id="g21"
     transform="translate(0,-220.67159)" /><g
     id="g23"
     transform="translate(0,-220.67159)" /><g
     id="g25"
     transform="translate(0,-220.67159)" /><g
     id="g27"
     transform="translate(0,-220.67159)" /><g
     id="g29"
     transform="translate(0,-220.67159)" /><g
     id="g31"
     transform="translate(0,-220.67159)" /><g
     id="g33"
     transform="translate(0,-220.67159)" /><g
     transform="matrix(0.09771447,0,0,0.09771447,0.09782116,-0.04023052)"
     id="XMLID_14_"
     style="fill:#00ff00"><path
       inkscape:connector-curvature="0"
       id="XMLID_150_"
       style="fill:#00ff00"
       d="m 4.288,73.894 c 0.297,0.518 0.339,1.091 0.456,1.644 1.152,5.437 2.724,10.75 4.885,15.872 2.964,7.023 6.879,13.452 12.101,19.05 5.558,5.956 12.14,10.393 19.716,13.365 0.83,0.326 1.676,0.61 2.507,0.935 0.407,0.159 0.589,0.092 0.585,-0.382 -0.013,-1.53 -0.015,-3.06 0.002,-4.59 0.004,-0.396 -0.172,-0.566 -0.526,-0.667 -0.551,-0.157 -1.082,-0.398 -1.641,-0.514 -0.632,-0.131 -0.794,-0.47 -0.779,-1.076 0.032,-1.274 0.009,-2.55 -0.03,-3.824 -0.013,-0.406 0.126,-0.573 0.505,-0.65 0.978,-0.198 1.947,-0.445 2.928,-0.625 0.517,-0.095 0.703,-0.343 0.714,-0.859 0.075,-3.844 0.17,-7.688 0.258,-11.532 0.084,-3.673 0.167,-7.346 0.252,-11.019 0.079,-3.397 0.159,-6.795 0.245,-10.192 0.016,-0.615 0.023,-1.235 0.099,-1.844 0.261,-2.083 -0.446,-3.98 -1.086,-5.892 -0.268,-0.803 -0.224,-0.873 0.617,-0.89 1.001,-0.021 1.004,-0.022 0.709,-0.952 -0.302,-0.952 -0.576,-1.914 -0.927,-2.848 -0.284,-0.756 -0.348,-1.52 -0.338,-2.313 0.006,-0.439 0.115,-0.701 0.609,-0.654 0.545,0.051 0.698,-0.237 0.674,-0.736 -0.116,-2.352 -0.012,-4.711 -0.242,-7.062 -0.235,-2.41 0.967,-4.134 2.776,-5.537 0.184,-0.143 0.383,-0.27 0.559,-0.422 0.304,-0.263 0.325,-0.557 -0.017,-0.79 -0.584,-0.396 -0.584,-0.869 -0.273,-1.433 0.256,-0.465 0.482,-0.946 0.716,-1.423 0.165,-0.337 0.357,-0.36 0.527,-0.025 0.308,0.605 0.599,1.219 0.879,1.838 0.164,0.361 0.017,0.656 -0.252,0.912 -0.568,0.541 -0.553,0.681 0.099,1.147 1.214,0.867 2.216,1.902 2.757,3.336 0.309,0.819 0.378,1.652 0.293,2.507 -0.237,2.392 -0.205,4.792 -0.233,7.19 -0.005,0.462 0.265,0.538 0.62,0.494 0.551,-0.068 0.644,0.189 0.676,0.694 0.067,1.057 -0.29,2.007 -0.595,2.976 -0.268,0.851 -0.548,1.698 -0.841,2.541 -0.131,0.379 -0.06,0.578 0.374,0.553 0.021,-0.001 0.043,0 0.064,10e-4 1.294,0.068 1.292,0.067 0.902,1.285 -0.272,0.85 -0.544,1.699 -0.803,2.553 -0.31,1.024 -0.103,2.067 -0.096,3.103 0.002,0.276 0.041,0.551 0.048,0.826 0.103,4.332 0.182,8.665 0.311,12.996 0.1,3.376 0.176,6.752 0.26,10.128 0.078,3.142 0.196,6.284 0.238,9.427 0.011,0.861 0.024,0.861 0.847,0.862 0.659,0.001 1.318,-0.015 1.976,0.004 0.414,0.012 0.559,-0.161 0.563,-0.566 0.009,-1.064 -0.073,-2.083 -0.44,-3.12 -0.878,-2.482 -1.105,-5.019 -0.072,-7.535 0.588,-1.433 1.694,-2.484 2.777,-3.531 2.799,-2.705 5.709,-5.281 8.955,-7.449 1.539,-1.028 3.108,-1.998 4.894,-2.561 0.536,-0.169 0.697,-1.348 0.282,-1.932 -0.11,-0.156 -0.242,-0.296 -0.363,-0.444 -0.374,-0.457 -0.454,-0.991 -0.014,-1.379 1.309,-1.154 1.304,-2.678 1.317,-4.216 0.002,-0.251 0.022,-0.503 0.041,-0.911 0.218,0.424 0.238,0.731 0.245,1.039 0.013,0.616 0.043,1.229 0.142,1.84 0.102,0.623 0.269,1.193 0.762,1.636 0.202,0.181 0.345,0.429 0.508,0.652 0.333,0.456 0.31,0.894 -0.042,1.34 -0.219,0.278 -0.509,0.514 -0.568,0.902 -0.162,1.067 -0.068,1.248 0.94,1.629 2.721,1.029 5.041,2.722 7.305,4.483 2.433,1.892 4.656,4.026 6.88,6.16 2.51,2.409 2.999,5.308 2.394,8.542 -0.121,0.645 -0.256,1.308 -0.522,1.9 -0.427,0.952 -0.437,1.93 -0.428,2.931 0.004,0.448 0.192,0.59 0.618,0.589 3.421,-0.01 6.843,-0.01 10.264,-0.002 0.399,10e-4 0.677,-0.178 0.951,-0.434 2.448,-2.289 4.525,-4.894 6.489,-7.596 3.123,-4.296 5.758,-8.873 7.826,-13.765 2.399,-5.675 3.958,-11.555 4.298,-17.742 0.319,-5.812 -0.569,-11.418 -2.521,-16.89 -1.524,-4.27 -3.272,-8.436 -5.421,-12.428 C 113.32,36.705 109.5,31.393 104.705,26.822 98.693,21.09 91.698,16.976 83.865,14.243 77.29,11.95 70.505,10.662 63.6,9.925 62.778,9.837 61.956,9.737 61.135,9.638 61.105,9.634 61.082,9.581 60.959,9.442 68.288,8.028 75.577,7.735 82.899,8.671 c 17.39,2.223 32.055,9.797 43.787,22.811 24.316,26.975 23.387,66.702 1.353,92.508 C 104.819,151.186 66.3,156.136 37.646,138.437 22.802,129.268 12.7,116.28 7.328,99.683 4.616,91.306 3.628,82.686 4.288,73.894 Z" /><path
       inkscape:connector-curvature="0"
       id="XMLID_149_"
       style="fill:#00ff00"
       d="m 14.926,7.065 c 1.961,0.717 3.87,1.416 5.779,2.113 2.933,1.071 5.869,2.133 8.797,3.218 0.454,0.168 0.724,0.079 1.023,-0.306 3.05,-3.924 6.117,-7.834 9.183,-11.746 0.111,-0.142 0.205,-0.409 0.41,-0.332 0.244,0.093 0.121,0.375 0.114,0.57 -0.169,4.967 -0.338,9.933 -0.53,14.899 -0.018,0.462 0.109,0.676 0.548,0.834 4.695,1.694 9.383,3.408 14.072,5.121 0.164,0.06 0.44,0.052 0.418,0.302 -0.017,0.193 -0.261,0.179 -0.419,0.224 -4.758,1.362 -9.513,2.734 -14.279,4.069 -0.606,0.17 -0.79,0.448 -0.806,1.06 -0.114,4.352 -0.264,8.704 -0.408,13.055 -0.02,0.594 -0.065,1.187 -0.105,1.78 -0.009,0.139 0.046,0.335 -0.141,0.382 -0.178,0.045 -0.24,-0.144 -0.319,-0.259 -1.074,-1.582 -2.146,-3.164 -3.214,-4.75 -1.743,-2.59 -3.493,-5.176 -5.213,-7.781 -0.308,-0.467 -0.646,-0.365 -1.044,-0.251 -4.023,1.15 -8.046,2.298 -12.07,3.447 -0.735,0.21 -1.47,0.423 -2.204,0.635 -0.161,0.047 -0.366,0.167 -0.477,0.021 -0.152,-0.198 0.086,-0.345 0.191,-0.48 1.944,-2.498 3.895,-4.989 5.847,-7.481 1.14,-1.455 2.276,-2.911 3.429,-4.356 0.258,-0.323 0.234,-0.567 0.006,-0.903 C 20.727,16.035 17.955,11.91 15.183,7.786 15.058,7.602 14.86,7.438 14.926,7.065 Z" /></g></svg>