<?xml version="1.0" encoding="UTF-8" standalone="no"?>
<!-- Created with Inkscape (http://www.inkscape.org/) -->

<svg
   xmlns:dc="http://purl.org/dc/elements/1.1/"
   xmlns:cc="http://creativecommons.org/ns#"
   xmlns:rdf="http://www.w3.org/1999/02/22-rdf-syntax-ns#"
   xmlns:svg="http://www.w3.org/2000/svg"
   xmlns="http://www.w3.org/2000/svg"
   xmlns:sodipodi="http://sodipodi.sourceforge.net/DTD/sodipodi-0.dtd"
   xmlns:inkscape="http://www.inkscape.org/namespaces/inkscape"
   id="svg2"
   version="1.1"
   inkscape:version="0.91 r13725"
   xml:space="preserve"
   width="600"
   height="600"
   viewBox="0 0 600 600"
   sodipodi:docname="mosque.svg"><metadata
     id="metadata8"><rdf:RDF><cc:Work
         rdf:about=""><dc:format>image/svg+xml</dc:format><dc:type
           rdf:resource="http://purl.org/dc/dcmitype/StillImage" /><dc:title /></cc:Work></rdf:RDF></metadata><defs
     id="defs6"><clipPath
       clipPathUnits="userSpaceOnUse"
       id="clipPath18"><path
         d="M 0,800 800,800 800,0 0,0 0,800 Z"
         id="path20"
         inkscape:connector-curvature="0" /></clipPath></defs><sodipodi:namedview
     pagecolor="#ffffff"
     bordercolor="#666666"
     borderopacity="1"
     objecttolerance="10"
     gridtolerance="10"
     guidetolerance="10"
     inkscape:pageopacity="0"
     inkscape:pageshadow="2"
     inkscape:window-width="1273"
     inkscape:window-height="698"
     id="namedview4"
     showgrid="false"
     inkscape:zoom="0.236"
     inkscape:cx="500"
     inkscape:cy="161.01695"
     inkscape:window-x="0"
     inkscape:window-y="0"
     inkscape:window-maximized="0"
     inkscape:current-layer="g10" /><g
     id="g10"
     inkscape:groupmode="layer"
     inkscape:label="573292"
     transform="matrix(1.25,0,0,-1.25,0,600)"><path
       d="M 0,0 480,0 480,480 0,480 0,0 Z"
       style="fill:#eaeaea;fill-opacity:1;fill-rule:nonzero;stroke:none"
       id="path12"
       inkscape:connector-curvature="0" /><g
       transform="matrix(1.3230024,0,0,-1.3230024,12.177825,472.20339)"
       id="g3337"
       style="fill:#4d4d4d;fill-opacity:1"><path
         inkscape:connector-curvature="0"
         d="m 248.631,294.941 -4.045,0 c -6.326,-36.704 -7.344,-74.362 -29.263,-95.858 -21.472,-21.054 -49.554,-27.569 -68.185,-44.61 l 0,-7.976 c 1.707,-0.817 2.897,-2.547 2.897,-4.562 0,-2.016 -1.19,-3.746 -2.897,-4.564 l 0,-3.39 c 0.445,-0.51 0.724,-1.169 0.724,-1.898 0,-1.6 -2.897,-9.853 -2.897,-9.853 0,0 -2.898,8.253 -2.898,9.853 0,0.73 0.279,1.39 0.725,1.899 l 0,3.389 c -1.708,0.817 -2.898,2.548 -2.898,4.564 0,2.016 1.191,3.745 2.898,4.563 l 0,7.975 c -18.631,17.041 -46.714,23.556 -68.185,44.611 -21.92,21.497 -22.939,59.154 -29.264,95.858 l -4.047,0 -6.955,17.967 221.246,0 -6.956,-17.968 z m -174.166,-0.724 -7.856,0 0,-11.302 7.856,0 0,11.302 z m 24.808,0 -7.855,0 0,-11.302 7.855,0 0,11.302 z m 24.809,0 -7.855,0 0,-11.302 7.855,0 0,11.302 z m 24.811,0 -7.857,0 0,-11.302 7.857,0 0,11.302 z m 24.808,0 -7.857,0 0,-11.302 7.857,0 0,11.302 z m 24.807,0 -7.855,0 0,-11.302 7.855,0 0,11.302 z m 24.81,0 -7.857,0 0,-11.302 7.857,0 0,11.302 z"
         id="path3339"
         style="fill:#4d4d4d;fill-opacity:1" /><path
         inkscape:connector-curvature="0"
         d="m 308.162,225.744 0,-8.563 -9.355,-8.162 -11.952,10.434 -11.955,-10.433 -9.336,8.15 0,8.574 -15.214,0 0,28.398 10.995,0 0,68.039 -234.722,0 0,27.819 234.723,0 1.957,0 49.075,0 0,-95.857 10.999,0 0,-28.398 -15.215,0 z m -11.035,91.897 -20.527,0 0,-27.826 2.84,0 0,-10.951 7.424,-7.297 7.424,7.297 0,10.951 2.84,0 0,27.826 z"
         id="path3341"
         style="fill:#4d4d4d;fill-opacity:1" /><polygon
         points="298.807,185.546 286.856,195.979 274.9,185.547 265.564,193.696 265.564,211.4 274.9,203.25 286.856,213.684 298.806,203.25 308.162,211.413 308.162,193.707 "
         id="polygon3343"
         style="fill:#4d4d4d;fill-opacity:1" /><path
         inkscape:connector-curvature="0"
         d="m 259.113,159.962 6.451,20.068 0,7.896 9.336,-8.149 11.955,10.432 11.951,-10.431 9.356,8.161 0,-7.914 6.451,-20.063 -6.451,0 0,-80.783 6.451,-20.063 -17.139,0 0,-17.497 c 0,-5.115 -3.621,-9.384 -8.438,-10.387 l 0,-6.965 c 1.707,-0.817 2.898,-2.547 2.898,-4.561 0,-2.016 -1.191,-3.746 -2.898,-4.564 l 0,-3.391 c 0.446,-0.509 0.725,-1.169 0.725,-1.899 0,-1.6 -2.898,-9.852 -2.898,-9.852 0,0 -2.897,8.253 -2.897,9.852 0,0.731 0.279,1.39 0.724,1.899 l 0,3.392 c -1.707,0.817 -2.897,2.547 -2.897,4.563 0,2.015 1.19,3.744 2.897,4.561 l 0,6.965 c -4.818,1.003 -8.438,5.271 -8.438,10.387 l 0,17.497 -17.139,0 6.451,20.068 0,80.777 -6.451,0 z m 21.94,-69.652 1.607,0 0,-6.198 4.203,-4.131 4.201,4.131 0,6.198 1.607,0 0,15.752 -11.619,0 0,-15.752 z m 0,37.381 1.607,0 0,-6.195 4.203,-4.133 4.201,4.133 0,6.195 1.607,0 0,15.752 -11.619,0 0,-15.752 z"
         id="path3345"
         style="fill:#4d4d4d;fill-opacity:1" /></g></g></svg>